<svg xmlns="http://www.w3.org/2000/svg" viewBox="0 0 1400 590" width="1400" height="590" role="img">
<rect width="1400" height="590" fill="#0d1117"/>
<rect x="92" y="118" width="560" height="362" fill="#111823" rx="6"/>
<rect x="519.9" y="118" width="132.1" height="362" fill="#1a2230" rx="6"/>
<text x="644.0" y="138.0" fill="#7d8da5" font-size="12" font-family="system-ui,-apple-system,Segoe UI,Roboto,sans-serif" font-weight="normal" text-anchor="end">oversubscribed (&gt; 4 vCPU)</text>
<line x1="92" y1="480.0" x2="652" y2="480.0" stroke="#1f2937" stroke-width="1"/>
<text x="80.0" y="484.0" fill="#8b98ad" font-size="12" font-family="system-ui,-apple-system,Segoe UI,Roboto,sans-serif" font-weight="normal" text-anchor="end">0</text>
<line x1="92" y1="389.5" x2="652" y2="389.5" stroke="#1f2937" stroke-width="1"/>
<text x="80.0" y="393.5" fill="#8b98ad" font-size="12" font-family="system-ui,-apple-system,Segoe UI,Roboto,sans-serif" font-weight="normal" text-anchor="end">19.5M</text>
<line x1="92" y1="299.0" x2="652" y2="299.0" stroke="#1f2937" stroke-width="1"/>
<text x="80.0" y="303.0" fill="#8b98ad" font-size="12" font-family="system-ui,-apple-system,Segoe UI,Roboto,sans-serif" font-weight="normal" text-anchor="end">39.1M</text>
<line x1="92" y1="208.5" x2="652" y2="208.5" stroke="#1f2937" stroke-width="1"/>
<text x="80.0" y="212.5" fill="#8b98ad" font-size="12" font-family="system-ui,-apple-system,Segoe UI,Roboto,sans-serif" font-weight="normal" text-anchor="end">58.6M</text>
<line x1="92" y1="118.0" x2="652" y2="118.0" stroke="#1f2937" stroke-width="1"/>
<text x="80.0" y="122.0" fill="#8b98ad" font-size="12" font-family="system-ui,-apple-system,Segoe UI,Roboto,sans-serif" font-weight="normal" text-anchor="end">78.2M</text>
<line x1="92.0" y1="118" x2="92.0" y2="480" stroke="#1f2937" stroke-width="1"/>
<text x="92.0" y="506.0" fill="#e8eef7" font-size="13" font-family="system-ui,-apple-system,Segoe UI,Roboto,sans-serif" font-weight="600" text-anchor="middle">1</text>
<line x1="278.7" y1="118" x2="278.7" y2="480" stroke="#1f2937" stroke-width="1"/>
<text x="278.7" y="506.0" fill="#e8eef7" font-size="13" font-family="system-ui,-apple-system,Segoe UI,Roboto,sans-serif" font-weight="600" text-anchor="middle">2</text>
<line x1="387.9" y1="118" x2="387.9" y2="480" stroke="#1f2937" stroke-width="1"/>
<text x="387.9" y="506.0" fill="#e8eef7" font-size="13" font-family="system-ui,-apple-system,Segoe UI,Roboto,sans-serif" font-weight="600" text-anchor="middle">3</text>
<line x1="465.3" y1="118" x2="465.3" y2="480" stroke="#1f2937" stroke-width="1"/>
<text x="465.3" y="506.0" fill="#e8eef7" font-size="13" font-family="system-ui,-apple-system,Segoe UI,Roboto,sans-serif" font-weight="600" text-anchor="middle">4</text>
<line x1="574.5" y1="118" x2="574.5" y2="480" stroke="#1f2937" stroke-width="1"/>
<text x="574.5" y="506.0" fill="#e8eef7" font-size="13" font-family="system-ui,-apple-system,Segoe UI,Roboto,sans-serif" font-weight="600" text-anchor="middle">6</text>
<text x="574.5" y="524.0" fill="#7d8da5" font-size="11" font-family="system-ui,-apple-system,Segoe UI,Roboto,sans-serif" font-weight="normal" text-anchor="middle">1.5x</text>
<line x1="652.0" y1="118" x2="652.0" y2="480" stroke="#1f2937" stroke-width="1"/>
<text x="652.0" y="506.0" fill="#e8eef7" font-size="13" font-family="system-ui,-apple-system,Segoe UI,Roboto,sans-serif" font-weight="600" text-anchor="middle">8</text>
<text x="652.0" y="524.0" fill="#7d8da5" font-size="11" font-family="system-ui,-apple-system,Segoe UI,Roboto,sans-serif" font-weight="normal" text-anchor="middle">2x</text>
<path d="M92.0 378.5 L278.7 284.3 L387.9 264.3 L465.3 233.8 L574.5 234.2 L652.0 230.0" fill="none" stroke="#e3b341" stroke-width="2.5" stroke-linejoin="round" stroke-linecap="round"/>
<circle cx="92.0" cy="378.5" r="4.5" fill="#0d1117" stroke="#e3b341" stroke-width="2.5"/>
<circle cx="278.7" cy="284.3" r="4.5" fill="#0d1117" stroke="#e3b341" stroke-width="2.5"/>
<circle cx="387.9" cy="264.3" r="4.5" fill="#0d1117" stroke="#e3b341" stroke-width="2.5"/>
<circle cx="465.3" cy="233.8" r="4.5" fill="#0d1117" stroke="#e3b341" stroke-width="2.5"/>
<circle cx="574.5" cy="234.2" r="4.5" fill="#0d1117" stroke="#e3b341" stroke-width="2.5"/>
<circle cx="652.0" cy="230.0" r="4.5" fill="#0d1117" stroke="#e3b341" stroke-width="2.5"/>
<path d="M92.0 359.8 L278.7 239.5 L387.9 208.1 L465.3 160.3 L574.5 164.7 L652.0 161.0" fill="none" stroke="#bc8cff" stroke-width="2.5" stroke-linejoin="round" stroke-linecap="round"/>
<circle cx="92.0" cy="359.8" r="4.5" fill="#0d1117" stroke="#bc8cff" stroke-width="2.5"/>
<circle cx="278.7" cy="239.5" r="4.5" fill="#0d1117" stroke="#bc8cff" stroke-width="2.5"/>
<circle cx="387.9" cy="208.1" r="4.5" fill="#0d1117" stroke="#bc8cff" stroke-width="2.5"/>
<circle cx="465.3" cy="160.3" r="4.5" fill="#0d1117" stroke="#bc8cff" stroke-width="2.5"/>
<circle cx="574.5" cy="164.7" r="4.5" fill="#0d1117" stroke="#bc8cff" stroke-width="2.5"/>
<circle cx="652.0" cy="161.0" r="4.5" fill="#0d1117" stroke="#bc8cff" stroke-width="2.5"/>
<path d="M92.0 355.4 L278.7 236.8 L387.9 204.9 L465.3 156.8 L574.5 172.3 L652.0 161.1" fill="none" stroke="#3fb950" stroke-width="2.5" stroke-linejoin="round" stroke-linecap="round"/>
<circle cx="92.0" cy="355.4" r="4.5" fill="#0d1117" stroke="#3fb950" stroke-width="2.5"/>
<circle cx="278.7" cy="236.8" r="4.5" fill="#0d1117" stroke="#3fb950" stroke-width="2.5"/>
<circle cx="387.9" cy="204.9" r="4.5" fill="#0d1117" stroke="#3fb950" stroke-width="2.5"/>
<circle cx="465.3" cy="156.8" r="4.5" fill="#0d1117" stroke="#3fb950" stroke-width="2.5"/>
<circle cx="574.5" cy="172.3" r="4.5" fill="#0d1117" stroke="#3fb950" stroke-width="2.5"/>
<circle cx="652.0" cy="161.1" r="4.5" fill="#0d1117" stroke="#3fb950" stroke-width="2.5"/>
<path d="M92.0 368.9 L278.7 261.6 L387.9 234.6 L465.3 196.3 L574.5 196.5 L652.0 194.1" fill="none" stroke="#58a6ff" stroke-width="2.5" stroke-linejoin="round" stroke-linecap="round"/>
<circle cx="92.0" cy="368.9" r="4.5" fill="#0d1117" stroke="#58a6ff" stroke-width="2.5"/>
<circle cx="278.7" cy="261.6" r="4.5" fill="#0d1117" stroke="#58a6ff" stroke-width="2.5"/>
<circle cx="387.9" cy="234.6" r="4.5" fill="#0d1117" stroke="#58a6ff" stroke-width="2.5"/>
<circle cx="465.3" cy="196.3" r="4.5" fill="#0d1117" stroke="#58a6ff" stroke-width="2.5"/>
<circle cx="574.5" cy="196.5" r="4.5" fill="#0d1117" stroke="#58a6ff" stroke-width="2.5"/>
<circle cx="652.0" cy="194.1" r="4.5" fill="#0d1117" stroke="#58a6ff" stroke-width="2.5"/>
<text x="80.0" y="72.0" fill="#e8eef7" font-size="20" font-family="system-ui,-apple-system,Segoe UI,Roboto,sans-serif" font-weight="600" text-anchor="start">Tiny hot path (16-64 B)</text>
<text x="80.0" y="94.0" fill="#7d8da5" font-size="13" font-family="system-ui,-apple-system,Segoe UI,Roboto,sans-serif" font-weight="normal" text-anchor="start">aggregate throughput (operations/second) by worker thread count</text>
<rect x="712" y="118" width="560" height="362" fill="#111823" rx="6"/>
<rect x="1139.9" y="118" width="132.1" height="362" fill="#1a2230" rx="6"/>
<text x="1264.0" y="138.0" fill="#7d8da5" font-size="12" font-family="system-ui,-apple-system,Segoe UI,Roboto,sans-serif" font-weight="normal" text-anchor="end">oversubscribed (&gt; 4 vCPU)</text>
<line x1="712" y1="480.0" x2="1272" y2="480.0" stroke="#1f2937" stroke-width="1"/>
<text x="700.0" y="484.0" fill="#8b98ad" font-size="12" font-family="system-ui,-apple-system,Segoe UI,Roboto,sans-serif" font-weight="normal" text-anchor="end">0</text>
<line x1="712" y1="389.5" x2="1272" y2="389.5" stroke="#1f2937" stroke-width="1"/>
<text x="700.0" y="393.5" fill="#8b98ad" font-size="12" font-family="system-ui,-apple-system,Segoe UI,Roboto,sans-serif" font-weight="normal" text-anchor="end">11.0M</text>
<line x1="712" y1="299.0" x2="1272" y2="299.0" stroke="#1f2937" stroke-width="1"/>
<text x="700.0" y="303.0" fill="#8b98ad" font-size="12" font-family="system-ui,-apple-system,Segoe UI,Roboto,sans-serif" font-weight="normal" text-anchor="end">22.0M</text>
<line x1="712" y1="208.5" x2="1272" y2="208.5" stroke="#1f2937" stroke-width="1"/>
<text x="700.0" y="212.5" fill="#8b98ad" font-size="12" font-family="system-ui,-apple-system,Segoe UI,Roboto,sans-serif" font-weight="normal" text-anchor="end">33.0M</text>
<line x1="712" y1="118.0" x2="1272" y2="118.0" stroke="#1f2937" stroke-width="1"/>
<text x="700.0" y="122.0" fill="#8b98ad" font-size="12" font-family="system-ui,-apple-system,Segoe UI,Roboto,sans-serif" font-weight="normal" text-anchor="end">43.9M</text>
<line x1="712.0" y1="118" x2="712.0" y2="480" stroke="#1f2937" stroke-width="1"/>
<text x="712.0" y="506.0" fill="#e8eef7" font-size="13" font-family="system-ui,-apple-system,Segoe UI,Roboto,sans-serif" font-weight="600" text-anchor="middle">1</text>
<line x1="898.7" y1="118" x2="898.7" y2="480" stroke="#1f2937" stroke-width="1"/>
<text x="898.7" y="506.0" fill="#e8eef7" font-size="13" font-family="system-ui,-apple-system,Segoe UI,Roboto,sans-serif" font-weight="600" text-anchor="middle">2</text>
<line x1="1007.9" y1="118" x2="1007.9" y2="480" stroke="#1f2937" stroke-width="1"/>
<text x="1007.9" y="506.0" fill="#e8eef7" font-size="13" font-family="system-ui,-apple-system,Segoe UI,Roboto,sans-serif" font-weight="600" text-anchor="middle">3</text>
<line x1="1085.3" y1="118" x2="1085.3" y2="480" stroke="#1f2937" stroke-width="1"/>
<text x="1085.3" y="506.0" fill="#e8eef7" font-size="13" font-family="system-ui,-apple-system,Segoe UI,Roboto,sans-serif" font-weight="600" text-anchor="middle">4</text>
<line x1="1194.5" y1="118" x2="1194.5" y2="480" stroke="#1f2937" stroke-width="1"/>
<text x="1194.5" y="506.0" fill="#e8eef7" font-size="13" font-family="system-ui,-apple-system,Segoe UI,Roboto,sans-serif" font-weight="600" text-anchor="middle">6</text>
<text x="1194.5" y="524.0" fill="#7d8da5" font-size="11" font-family="system-ui,-apple-system,Segoe UI,Roboto,sans-serif" font-weight="normal" text-anchor="middle">1.5x</text>
<line x1="1272.0" y1="118" x2="1272.0" y2="480" stroke="#1f2937" stroke-width="1"/>
<text x="1272.0" y="506.0" fill="#e8eef7" font-size="13" font-family="system-ui,-apple-system,Segoe UI,Roboto,sans-serif" font-weight="600" text-anchor="middle">8</text>
<text x="1272.0" y="524.0" fill="#7d8da5" font-size="11" font-family="system-ui,-apple-system,Segoe UI,Roboto,sans-serif" font-weight="normal" text-anchor="middle">2x</text>
<path d="M712.0 321.4 L898.7 318.7 L1007.9 317.6 L1085.3 320.5 L1194.5 320.6 L1272.0 321.9" fill="none" stroke="#e3b341" stroke-width="2.5" stroke-linejoin="round" stroke-linecap="round"/>
<circle cx="712.0" cy="321.4" r="4.5" fill="#0d1117" stroke="#e3b341" stroke-width="2.5"/>
<circle cx="898.7" cy="318.7" r="4.5" fill="#0d1117" stroke="#e3b341" stroke-width="2.5"/>
<circle cx="1007.9" cy="317.6" r="4.5" fill="#0d1117" stroke="#e3b341" stroke-width="2.5"/>
<circle cx="1085.3" cy="320.5" r="4.5" fill="#0d1117" stroke="#e3b341" stroke-width="2.5"/>
<circle cx="1194.5" cy="320.6" r="4.5" fill="#0d1117" stroke="#e3b341" stroke-width="2.5"/>
<circle cx="1272.0" cy="321.9" r="4.5" fill="#0d1117" stroke="#e3b341" stroke-width="2.5"/>
<path d="M712.0 401.1 L898.7 366.1 L1007.9 331.3 L1085.3 296.3 L1194.5 226.7 L1272.0 156.8" fill="none" stroke="#bc8cff" stroke-width="2.5" stroke-linejoin="round" stroke-linecap="round"/>
<circle cx="712.0" cy="401.1" r="4.5" fill="#0d1117" stroke="#bc8cff" stroke-width="2.5"/>
<circle cx="898.7" cy="366.1" r="4.5" fill="#0d1117" stroke="#bc8cff" stroke-width="2.5"/>
<circle cx="1007.9" cy="331.3" r="4.5" fill="#0d1117" stroke="#bc8cff" stroke-width="2.5"/>
<circle cx="1085.3" cy="296.3" r="4.5" fill="#0d1117" stroke="#bc8cff" stroke-width="2.5"/>
<circle cx="1194.5" cy="226.7" r="4.5" fill="#0d1117" stroke="#bc8cff" stroke-width="2.5"/>
<circle cx="1272.0" cy="156.8" r="4.5" fill="#0d1117" stroke="#bc8cff" stroke-width="2.5"/>
<path d="M712.0 415.8 L898.7 398.5 L1007.9 398.4 L1085.3 398.3 L1194.5 380.9 L1272.0 363.5" fill="none" stroke="#3fb950" stroke-width="2.5" stroke-linejoin="round" stroke-linecap="round"/>
<circle cx="712.0" cy="415.8" r="4.5" fill="#0d1117" stroke="#3fb950" stroke-width="2.5"/>
<circle cx="898.7" cy="398.5" r="4.5" fill="#0d1117" stroke="#3fb950" stroke-width="2.5"/>
<circle cx="1007.9" cy="398.4" r="4.5" fill="#0d1117" stroke="#3fb950" stroke-width="2.5"/>
<circle cx="1085.3" cy="398.3" r="4.5" fill="#0d1117" stroke="#3fb950" stroke-width="2.5"/>
<circle cx="1194.5" cy="380.9" r="4.5" fill="#0d1117" stroke="#3fb950" stroke-width="2.5"/>
<circle cx="1272.0" cy="363.5" r="4.5" fill="#0d1117" stroke="#3fb950" stroke-width="2.5"/>
<path d="M712.0 397.8 L898.7 397.8 L1007.9 398.2 L1085.3 380.9 L1194.5 380.8 L1272.0 362.6" fill="none" stroke="#58a6ff" stroke-width="2.5" stroke-linejoin="round" stroke-linecap="round"/>
<circle cx="712.0" cy="397.8" r="4.5" fill="#0d1117" stroke="#58a6ff" stroke-width="2.5"/>
<circle cx="898.7" cy="397.8" r="4.5" fill="#0d1117" stroke="#58a6ff" stroke-width="2.5"/>
<circle cx="1007.9" cy="398.2" r="4.5" fill="#0d1117" stroke="#58a6ff" stroke-width="2.5"/>
<circle cx="1085.3" cy="380.9" r="4.5" fill="#0d1117" stroke="#58a6ff" stroke-width="2.5"/>
<circle cx="1194.5" cy="380.8" r="4.5" fill="#0d1117" stroke="#58a6ff" stroke-width="2.5"/>
<circle cx="1272.0" cy="362.6" r="4.5" fill="#0d1117" stroke="#58a6ff" stroke-width="2.5"/>
<text x="700.0" y="72.0" fill="#e8eef7" font-size="20" font-family="system-ui,-apple-system,Segoe UI,Roboto,sans-serif" font-weight="600" text-anchor="start">peak RSS by worker count</text>
<text x="700.0" y="94.0" fill="#7d8da5" font-size="13" font-family="system-ui,-apple-system,Segoe UI,Roboto,sans-serif" font-weight="normal" text-anchor="start">external smaps_rollup peak during the measured block; lower is better</text>
<rect x="80.0" y="536" width="22" height="4" rx="2" fill="#e3b341"/>
<text x="110.0" y="543.0" fill="#8b98ad" font-size="12" font-family="system-ui,-apple-system,Segoe UI,Roboto,sans-serif" font-weight="normal" text-anchor="start">tcmalloc</text>
<rect x="173.2" y="536" width="22" height="4" rx="2" fill="#bc8cff"/>
<text x="203.2" y="543.0" fill="#8b98ad" font-size="12" font-family="system-ui,-apple-system,Segoe UI,Roboto,sans-serif" font-weight="normal" text-anchor="start">jemalloc</text>
<rect x="266.4" y="536" width="22" height="4" rx="2" fill="#3fb950"/>
<text x="296.4" y="543.0" fill="#8b98ad" font-size="12" font-family="system-ui,-apple-system,Segoe UI,Roboto,sans-serif" font-weight="normal" text-anchor="start">upstream-mimalloc</text>
<rect x="426.2" y="536" width="22" height="4" rx="2" fill="#58a6ff"/>
<text x="456.2" y="543.0" fill="#8b98ad" font-size="12" font-family="system-ui,-apple-system,Segoe UI,Roboto,sans-serif" font-weight="normal" text-anchor="start">mimalloc-pprof</text>
<text x="80.0" y="574.0" fill="#7d8da5" font-size="11" font-family="system-ui,-apple-system,Segoe UI,Roboto,sans-serif" font-weight="normal" text-anchor="start">coverage mode - reduced statistical rigor (3 blocks) | median of 3 paired blocks | runner 2P/4L | informational</text>
</svg>
