<svg xmlns="http://www.w3.org/2000/svg" viewBox="0 0 1000 520" width="1000" height="520" role="img" aria-label="At the first idle tick mimalloc-pprof returns 74% of peak RSS, Bun's mimalloc 74%, jemalloc 0% by default">
<rect width="1000" height="520" fill="#0d1117"/>
<g font-family="-apple-system,BlinkMacSystemFont,Segoe UI,Helvetica,Arial,sans-serif">
<text x="64" y="26" font-size="17" font-weight="600" fill="#e6edf3">At the first idle tick mimalloc-pprof returns 74% of peak RSS, Bun's mimalloc 74%, jemalloc 0% by default</text>
<text x="64" y="44" font-size="12" fill="#8b949e">measured at 37b77e2b, AMD Ryzen 7 3700X 8-Core Processor, 6.18.48, taskset -c 0-3, best of 3 runs</text>
<text x="64" y="61" font-size="12" fill="#8b949e">300k blocks in three small size classes, a scattered 1-in-20 kept alive, the rest freed, then a 10 s idle window.</text>
<text x="64" y="78" font-size="12" fill="#8b949e">The mimalloc forks call mi_on_thread_idle() every 100 ms, punching holes in still-used pages; upstream has no such API (0%).</text>
<text x="64" y="95" font-size="12" fill="#8b949e">jemalloc's decay is advanced by allocation, not by idling: nothing on its own, 74% via an explicit mallctl("arena.&lt;all&gt;.purge") (dashed).</text>
<text x="64" y="112" font-size="12" fill="#8b949e">Its opt-in background_thread:true does return it -- 73% over this same window, with nothing called. See the diagnostics in the table.</text>
<line x1="64" y1="472.00" x2="790" y2="472.00" stroke="#30363d" stroke-width="1"/>
<text x="54" y="476.00" font-size="12" text-anchor="end" fill="#8b949e">0</text>
<line x1="64" y1="418.67" x2="790" y2="418.67" stroke="#30363d" stroke-width="1"/>
<text x="54" y="422.67" font-size="12" text-anchor="end" fill="#8b949e">50</text>
<line x1="64" y1="365.33" x2="790" y2="365.33" stroke="#30363d" stroke-width="1"/>
<text x="54" y="369.33" font-size="12" text-anchor="end" fill="#8b949e">100</text>
<line x1="64" y1="312.00" x2="790" y2="312.00" stroke="#30363d" stroke-width="1"/>
<text x="54" y="316.00" font-size="12" text-anchor="end" fill="#8b949e">150</text>
<line x1="64" y1="258.67" x2="790" y2="258.67" stroke="#30363d" stroke-width="1"/>
<text x="54" y="262.67" font-size="12" text-anchor="end" fill="#8b949e">200</text>
<line x1="64" y1="205.33" x2="790" y2="205.33" stroke="#30363d" stroke-width="1"/>
<text x="54" y="209.33" font-size="12" text-anchor="end" fill="#8b949e">250</text>
<line x1="64" y1="152.00" x2="790" y2="152.00" stroke="#30363d" stroke-width="1"/>
<text x="54" y="156.00" font-size="12" text-anchor="end" fill="#8b949e">300</text>
<text x="20" y="144.00" font-size="11" fill="#8b949e">MB</text>
<text x="64.00" y="494.00" font-size="12" text-anchor="start" fill="#8b949e">0s</text>
<text x="790.00" y="494.00" font-size="12" text-anchor="end" fill="#8b949e">10s</text>
<path d="M 64.00 174.73 L 71.26 395.59 L 78.52 395.59 L 85.78 395.59 L 93.04 395.59 L 100.30 395.59 L 107.56 395.59 L 114.82 395.59 L 122.08 395.59 L 129.34 395.59 L 136.60 395.59 L 143.86 395.59 L 151.12 395.59 L 158.38 395.59 L 165.64 395.59 L 172.90 395.59 L 180.16 395.59 L 187.42 395.59 L 194.68 395.59 L 201.94 395.59 L 209.20 395.59 L 216.46 395.59 L 223.72 395.59 L 230.98 395.59 L 238.24 395.59 L 245.50 395.59 L 252.76 395.59 L 260.02 395.59 L 267.28 395.59 L 274.54 395.59 L 281.80 395.59 L 289.06 395.59 L 296.32 395.59 L 303.58 395.59 L 310.84 395.59 L 318.10 395.59 L 325.36 395.59 L 332.62 395.59 L 339.88 395.59 L 347.14 395.59 L 354.40 395.59 L 361.66 395.59 L 368.92 395.59 L 376.18 395.59 L 383.44 395.59 L 390.70 395.59 L 397.96 395.59 L 405.22 395.59 L 412.48 395.59 L 419.74 395.59 L 427.00 395.59 L 434.26 395.59 L 441.52 395.59 L 448.78 395.59 L 456.04 395.59 L 463.30 395.59 L 470.56 395.59 L 477.82 395.59 L 485.08 395.59 L 492.34 395.59 L 499.60 395.59 L 506.86 395.59 L 514.12 395.59 L 521.38 395.59 L 528.64 395.59 L 535.90 395.59 L 543.16 395.59 L 550.42 395.59 L 557.68 395.59 L 564.94 395.59 L 572.20 395.59 L 579.46 395.59 L 586.72 395.59 L 593.98 395.59 L 601.24 395.59 L 608.50 395.59 L 615.76 395.59 L 623.02 395.59 L 630.28 395.59 L 637.54 395.59 L 644.80 395.59 L 652.06 395.59 L 659.32 395.59 L 666.58 395.59 L 673.84 395.59 L 681.10 395.59 L 688.36 395.59 L 695.62 395.59 L 702.88 395.59 L 710.14 395.59 L 717.40 395.59 L 724.66 395.59 L 731.92 395.59 L 739.18 395.59 L 746.44 395.59 L 753.70 395.59 L 760.96 395.59 L 768.22 395.59 L 775.48 395.59 L 782.74 395.59 L 790.00 395.59" fill="none" stroke="#3987e5" stroke-width="2" stroke-linejoin="round" stroke-linecap="round"/>
<path d="M 64.00 170.73 L 71.26 170.67 L 78.52 170.67 L 85.78 170.67 L 93.04 170.67 L 100.30 170.67 L 107.56 170.67 L 114.82 170.67 L 122.08 170.67 L 129.34 170.67 L 136.60 170.67 L 143.86 170.67 L 151.12 170.67 L 158.38 170.67 L 165.64 170.67 L 172.90 170.67 L 180.16 170.67 L 187.42 170.67 L 194.68 170.67 L 201.94 170.67 L 209.20 170.67 L 216.46 170.67 L 223.72 170.67 L 230.98 170.67 L 238.24 170.67 L 245.50 170.67 L 252.76 170.67 L 260.02 170.67 L 267.28 170.67 L 274.54 170.67 L 281.80 170.67 L 289.06 170.67 L 296.32 170.67 L 303.58 170.67 L 310.84 170.67 L 318.10 170.67 L 325.36 170.67 L 332.62 170.67 L 339.88 170.67 L 347.14 170.67 L 354.40 170.67 L 361.66 170.67 L 368.92 170.67 L 376.18 170.67 L 383.44 170.67 L 390.70 170.67 L 397.96 170.67 L 405.22 170.67 L 412.48 170.67 L 419.74 170.67 L 427.00 170.67 L 434.26 170.67 L 441.52 170.67 L 448.78 170.67 L 456.04 170.67 L 463.30 170.67 L 470.56 170.67 L 477.82 170.67 L 485.08 170.67 L 492.34 170.67 L 499.60 170.67 L 506.86 170.67 L 514.12 170.67 L 521.38 170.67 L 528.64 170.67 L 535.90 170.67 L 543.16 170.67 L 550.42 170.67 L 557.68 170.67 L 564.94 170.67 L 572.20 170.67 L 579.46 170.67 L 586.72 170.67 L 593.98 170.67 L 601.24 170.67 L 608.50 170.67 L 615.76 170.67 L 623.02 170.67 L 630.28 170.67 L 637.54 170.67 L 644.80 170.67 L 652.06 170.67 L 659.32 170.67 L 666.58 170.67 L 673.84 170.67 L 681.10 170.67 L 688.36 170.67 L 695.62 170.67 L 702.88 170.67 L 710.14 170.67 L 717.40 170.67 L 724.66 170.67 L 731.92 170.67 L 739.18 170.67 L 746.44 170.67 L 753.70 170.67 L 760.96 170.67 L 768.22 170.67 L 775.48 170.67 L 782.74 170.67 L 790.00 170.67" fill="none" stroke="#d95926" stroke-width="2" stroke-linejoin="round" stroke-linecap="round"/>
<path d="M 64.00 170.75 L 71.26 394.58 L 78.52 394.58 L 85.78 394.58 L 93.04 394.58 L 100.30 394.58 L 107.56 394.58 L 114.82 394.58 L 122.08 394.58 L 129.34 394.58 L 136.60 394.58 L 143.86 394.58 L 151.12 394.58 L 158.38 394.58 L 165.64 394.58 L 172.90 394.58 L 180.16 394.58 L 187.42 394.58 L 194.68 394.58 L 201.94 394.58 L 209.20 394.58 L 216.46 394.58 L 223.72 394.58 L 230.98 394.58 L 238.24 394.58 L 245.50 394.58 L 252.76 394.58 L 260.02 394.58 L 267.28 394.58 L 274.54 394.58 L 281.80 394.58 L 289.06 394.58 L 296.32 394.58 L 303.58 394.58 L 310.84 394.58 L 318.10 394.58 L 325.36 394.58 L 332.62 394.58 L 339.88 394.58 L 347.14 394.58 L 354.40 394.58 L 361.66 394.58 L 368.92 394.58 L 376.18 394.58 L 383.44 394.58 L 390.70 394.58 L 397.96 394.58 L 405.22 394.58 L 412.48 394.58 L 419.74 394.58 L 427.00 394.58 L 434.26 394.58 L 441.52 394.58 L 448.78 394.58 L 456.04 394.58 L 463.30 394.58 L 470.56 394.58 L 477.82 394.58 L 485.08 394.58 L 492.34 394.58 L 499.60 394.58 L 506.86 394.58 L 514.12 394.58 L 521.38 394.58 L 528.64 394.58 L 535.90 394.58 L 543.16 394.58 L 550.42 394.58 L 557.68 394.58 L 564.94 394.58 L 572.20 394.58 L 579.46 394.58 L 586.72 394.58 L 593.98 394.58 L 601.24 394.58 L 608.50 394.58 L 615.76 394.58 L 623.02 394.58 L 630.28 394.58 L 637.54 394.58 L 644.80 394.58 L 652.06 394.58 L 659.32 394.58 L 666.58 394.58 L 673.84 394.58 L 681.10 394.58 L 688.36 394.58 L 695.62 394.58 L 702.88 394.58 L 710.14 394.58 L 717.40 394.58 L 724.66 394.58 L 731.92 394.58 L 739.18 394.58 L 746.44 394.58 L 753.70 394.58 L 760.96 394.58 L 768.22 394.58 L 775.48 394.58 L 782.74 394.58 L 790.00 394.58" fill="none" stroke="#d95926" stroke-width="2" stroke-linejoin="round" stroke-linecap="round" stroke-dasharray="6,4"/>
<path d="M 64.00 174.69 L 71.26 395.55 L 78.52 395.55 L 85.78 395.55 L 93.04 395.55 L 100.30 395.55 L 107.56 395.55 L 114.82 395.55 L 122.08 395.55 L 129.34 395.55 L 136.60 395.55 L 143.86 395.55 L 151.12 395.55 L 158.38 395.55 L 165.64 395.55 L 172.90 395.55 L 180.16 395.55 L 187.42 395.55 L 194.68 395.55 L 201.94 395.55 L 209.20 395.55 L 216.46 395.55 L 223.72 395.55 L 230.98 395.55 L 238.24 395.55 L 245.50 395.55 L 252.76 395.55 L 260.02 395.55 L 267.28 395.55 L 274.54 395.55 L 281.80 395.55 L 289.06 395.55 L 296.32 395.55 L 303.58 395.55 L 310.84 395.55 L 318.10 395.55 L 325.36 395.55 L 332.62 395.55 L 339.88 395.55 L 347.14 395.55 L 354.40 395.55 L 361.66 395.55 L 368.92 395.55 L 376.18 395.55 L 383.44 395.55 L 390.70 395.55 L 397.96 395.55 L 405.22 395.55 L 412.48 395.55 L 419.74 395.55 L 427.00 395.55 L 434.26 395.55 L 441.52 395.55 L 448.78 395.55 L 456.04 395.55 L 463.30 395.55 L 470.56 395.55 L 477.82 395.55 L 485.08 395.55 L 492.34 395.55 L 499.60 395.55 L 506.86 395.55 L 514.12 395.55 L 521.38 395.55 L 528.64 395.55 L 535.90 395.55 L 543.16 395.55 L 550.42 395.55 L 557.68 395.55 L 564.94 395.55 L 572.20 395.55 L 579.46 395.55 L 586.72 395.55 L 593.98 395.55 L 601.24 395.55 L 608.50 395.55 L 615.76 395.55 L 623.02 395.55 L 630.28 395.55 L 637.54 395.55 L 644.80 395.55 L 652.06 395.55 L 659.32 395.55 L 666.58 395.55 L 673.84 395.55 L 681.10 395.55 L 688.36 395.55 L 695.62 395.55 L 702.88 395.55 L 710.14 395.55 L 717.40 395.55 L 724.66 395.55 L 731.92 395.55 L 739.18 395.55 L 746.44 395.55 L 753.70 395.55 L 760.96 395.55 L 768.22 395.55 L 775.48 395.55 L 782.74 395.55 L 790.00 395.55" fill="none" stroke="#199e70" stroke-width="2" stroke-linejoin="round" stroke-linecap="round"/>
<path d="M 64.00 176.96 L 71.26 176.89 L 78.52 176.89 L 85.78 176.89 L 93.04 176.89 L 100.30 176.89 L 107.56 176.89 L 114.82 176.89 L 122.08 176.89 L 129.34 176.89 L 136.60 176.89 L 143.86 176.89 L 151.12 176.89 L 158.38 176.89 L 165.64 176.89 L 172.90 176.89 L 180.16 176.89 L 187.42 176.89 L 194.68 176.89 L 201.94 176.89 L 209.20 176.89 L 216.46 176.89 L 223.72 176.89 L 230.98 176.89 L 238.24 176.89 L 245.50 176.89 L 252.76 176.89 L 260.02 176.89 L 267.28 176.89 L 274.54 176.89 L 281.80 176.89 L 289.06 176.89 L 296.32 176.89 L 303.58 176.89 L 310.84 176.89 L 318.10 176.89 L 325.36 176.89 L 332.62 176.89 L 339.88 176.89 L 347.14 176.89 L 354.40 176.89 L 361.66 176.89 L 368.92 176.89 L 376.18 176.89 L 383.44 176.89 L 390.70 176.89 L 397.96 176.89 L 405.22 176.89 L 412.48 176.89 L 419.74 176.89 L 427.00 176.89 L 434.26 176.89 L 441.52 176.89 L 448.78 176.89 L 456.04 176.89 L 463.30 176.89 L 470.56 176.89 L 477.82 176.89 L 485.08 176.89 L 492.34 176.89 L 499.60 176.89 L 506.86 176.89 L 514.12 176.89 L 521.38 176.89 L 528.64 176.89 L 535.90 176.89 L 543.16 176.89 L 550.42 176.89 L 557.68 176.89 L 564.94 176.89 L 572.20 176.89 L 579.46 176.89 L 586.72 176.89 L 593.98 176.89 L 601.24 176.89 L 608.50 176.89 L 615.76 176.89 L 623.02 176.89 L 630.28 176.89 L 637.54 176.89 L 644.80 176.89 L 652.06 176.89 L 659.32 176.89 L 666.58 176.89 L 673.84 176.89 L 681.10 176.89 L 688.36 176.89 L 695.62 176.89 L 702.88 176.89 L 710.14 176.89 L 717.40 176.89 L 724.66 176.89 L 731.92 176.89 L 739.18 176.89 L 746.44 176.89 L 753.70 176.89 L 760.96 176.89 L 768.22 176.89 L 775.48 176.89 L 782.74 176.89 L 790.00 176.89" fill="none" stroke="#c98500" stroke-width="2" stroke-linejoin="round" stroke-linecap="round"/>
<text x="85.26" y="286.40" font-size="11" fill="#8b949e">the drop is one measured 100 ms idle tick, not a gap in the data</text>
<text x="85.26" y="383.59" font-size="11" fill="#8b949e">mimalloc-pprof, jemalloc + explicit purge, Bun mimalloc overlap here, within 1 MB of each other</text>
<line x1="798.00" y1="395.59" x2="816.00" y2="395.59" stroke="#3987e5" stroke-width="2"/>
<text x="823.00" y="399.59" font-size="12" fill="#e6edf3">mimalloc-pprof</text>
<line x1="798.00" y1="379.55" x2="816.00" y2="379.55" stroke="#199e70" stroke-width="2"/>
<text x="823.00" y="383.55" font-size="12" fill="#e6edf3">Bun mimalloc</text>
<line x1="798.00" y1="362.58" x2="816.00" y2="362.58" stroke="#d95926" stroke-width="2" stroke-dasharray="5,3"/>
<text x="823.00" y="366.58" font-size="12" fill="#e6edf3">jemalloc + explicit purge</text>
<line x1="798.00" y1="176.89" x2="816.00" y2="176.89" stroke="#c98500" stroke-width="2"/>
<text x="823.00" y="180.89" font-size="12" fill="#e6edf3">upstream mimalloc</text>
<line x1="798.00" y1="154.67" x2="816.00" y2="154.67" stroke="#d95926" stroke-width="2"/>
<text x="823.00" y="158.67" font-size="12" fill="#e6edf3">jemalloc</text>
</g></svg>
